<?xml version="1.0" standalone="no"?>
<!DOCTYPE svg PUBLIC "-//W3C//DTD SVG 20010904//EN"
 "http://www.w3.org/TR/2001/REC-SVG-20010904/DTD/svg10.dtd">
<svg version="1.0" xmlns="http://www.w3.org/2000/svg"
 width="338.000000pt" height="336.000000pt" viewBox="0 0 338.000000 336.000000"
 preserveAspectRatio="xMidYMid meet">
<metadata>
Created by potrace 1.16, written by Peter Selinger 2001-2019
</metadata>
<g transform="translate(0.000000,336.000000) scale(0.100000,-0.100000)"
fill="#000000" stroke="none">
<path d="M1987 3049 c-8 -13 -67 -122 -131 -241 l-117 -218 -47 0 c-60 0 -198
-31 -282 -63 -342 -129 -587 -404 -681 -762 -21 -78 -24 -113 -24 -260 1 -189
17 -280 75 -416 16 -39 30 -76 30 -83 -1 -11 -32 -32 -292 -201 -65 -41 -118
-79 -118 -84 0 -5 9 -30 21 -55 25 -58 2 -61 299 44 l225 79 30 -25 c16 -13
71 -58 120 -99 105 -88 266 -173 395 -209 372 -105 772 -5 1052 263 l78 74
206 -73 c217 -77 207 -76 234 -28 9 14 -15 32 -162 119 -95 56 -175 104 -178
106 -2 2 15 42 38 89 50 100 55 125 9 39 -93 -171 -238 -309 -418 -395 -114
-54 -222 -81 -354 -87 -361 -18 -669 153 -865 480 -187 311 -187 681 -1 982
149 241 393 398 678 436 272 36 586 -66 808 -263 l60 -53 -43 52 c-143 173
-363 313 -569 362 -29 7 -53 16 -53 19 0 4 27 113 60 242 32 129 58 236 56
237 -1 2 -30 6 -63 9 -57 6 -62 5 -76 -17z"/>
<path d="M1665 2156 c-275 -45 -509 -267 -570 -541 -25 -109 -17 -272 18 -378
56 -172 177 -317 334 -399 134 -71 185 -83 343 -82 120 0 144 3 214 27 113 40
245 122 300 188 136 163 186 294 186 487 0 124 -18 208 -66 307 -89 187 -260
328 -458 379 -84 22 -210 27 -301 12z"/>
</g>
</svg>
