<?xml version="1.0" encoding="UTF-8"?>
<svg xmlns="http://www.w3.org/2000/svg" xmlns:xlink="http://www.w3.org/1999/xlink" width="24pt" height="23pt" viewBox="0 0 24 23" version="1.1">
<g id="surface1">
<path style=" stroke:none;fill-rule:nonzero;fill:rgb(0%,0%,0%);fill-opacity:1;" d="M 14.09375 2.128906 C 14.035156 2.21875 13.617188 2.964844 13.164062 3.777344 L 12.332031 5.269531 L 12 5.269531 C 11.574219 5.269531 10.597656 5.484375 10 5.703125 C 7.574219 6.585938 5.835938 8.46875 5.171875 10.917969 C 5.019531 11.453125 5 11.691406 5 12.699219 C 5.007812 13.992188 5.121094 14.613281 5.53125 15.546875 C 5.644531 15.8125 5.746094 16.066406 5.746094 16.113281 C 5.738281 16.1875 5.519531 16.332031 3.671875 17.488281 C 3.210938 17.769531 2.835938 18.03125 2.835938 18.066406 C 2.835938 18.097656 2.902344 18.269531 2.984375 18.441406 C 3.164062 18.839844 3 18.859375 5.105469 18.140625 L 6.703125 17.597656 L 6.914062 17.769531 C 7.027344 17.859375 7.417969 18.167969 7.765625 18.449219 C 8.511719 19.050781 9.652344 19.632812 10.566406 19.878906 C 13.207031 20.597656 16.042969 19.914062 18.027344 18.078125 L 18.582031 17.570312 L 20.042969 18.070312 C 21.582031 18.597656 21.511719 18.589844 21.703125 18.261719 C 21.765625 18.167969 21.597656 18.042969 20.554688 17.449219 C 19.878906 17.066406 19.3125 16.738281 19.289062 16.722656 C 19.277344 16.710938 19.398438 16.433594 19.558594 16.113281 C 19.914062 15.429688 19.949219 15.257812 19.625 15.847656 C 18.964844 17.015625 17.9375 17.960938 16.660156 18.550781 C 15.851562 18.921875 15.085938 19.105469 14.148438 19.144531 C 11.589844 19.269531 9.402344 18.097656 8.015625 15.859375 C 6.6875 13.730469 6.6875 11.199219 8.007812 9.136719 C 9.0625 7.488281 10.792969 6.414062 12.816406 6.152344 C 14.746094 5.90625 16.972656 6.605469 18.546875 7.953125 L 18.972656 8.316406 L 18.667969 7.960938 C 17.652344 6.777344 16.09375 5.820312 14.632812 5.484375 C 14.425781 5.433594 14.253906 5.375 14.253906 5.351562 C 14.253906 5.324219 14.445312 4.578125 14.679688 3.695312 C 14.90625 2.8125 15.09375 2.082031 15.078125 2.074219 C 15.070312 2.058594 14.867188 2.03125 14.632812 2.011719 C 14.226562 1.972656 14.191406 1.976562 14.09375 2.128906 Z M 14.09375 2.128906 "/>
<path style=" stroke:none;fill-rule:nonzero;fill:rgb(0%,0%,0%);fill-opacity:1;" d="M 11.808594 8.242188 C 9.859375 8.550781 8.199219 10.070312 7.765625 11.945312 C 7.589844 12.691406 7.644531 13.808594 7.894531 14.53125 C 8.289062 15.710938 9.148438 16.703125 10.261719 17.265625 C 11.210938 17.75 11.574219 17.832031 12.695312 17.824219 C 13.546875 17.824219 13.714844 17.804688 14.210938 17.640625 C 15.015625 17.367188 15.949219 16.804688 16.339844 16.351562 C 17.304688 15.238281 17.660156 14.339844 17.660156 13.019531 C 17.660156 12.171875 17.53125 11.597656 17.191406 10.917969 C 16.558594 9.636719 15.347656 8.671875 13.941406 8.324219 C 13.347656 8.171875 12.453125 8.140625 11.808594 8.242188 Z M 11.808594 8.242188 "/>
</g>
</svg>
