<svg id="Layer_1" height="512" viewBox="0 0 512 512" width="512" xmlns="http://www.w3.org/2000/svg" data-name="Layer 1"><path d="m305.534 181.509a6 6 0 0 0 0 8.486l16.658 16.658a6 6 0 1 0 8.486-8.485l-16.659-16.659a6 6 0 0 0 -8.485 0z"/><path d="m290.543 204.985a6 6 0 0 0 -8.485 8.486l16.658 16.658a6 6 0 1 0 8.486-8.485z"/><path d="m267.067 228.461a6 6 0 0 0 -8.485 8.485l16.658 16.659a6 6 0 1 0 8.486-8.485z"/><path d="m243.591 251.937a6 6 0 0 0 -8.485 8.486l16.659 16.658a6 6 0 0 0 8.485-8.486z"/><path d="m485.022 19.511-48.439 17.08a67.853 67.853 0 0 0 -25.259 15.909l-12.992 13a132.169 132.169 0 0 0 -71.872 37.393l-111.26 112.007-.058-.285-87.816 14.074a49.964 49.964 0 0 0 -27.589 14.089l-31.581 31.579a6 6 0 0 0 2.549 10l58.421 17.2-17.668 17.787a6 6 0 0 0 -.754 7.53l-40.363 14.626a6 6 0 0 0 -2.2 9.883l14.039 14.039c-10.1 8.877-28.622 27.015-28.849 27.242-24.914 24.914-41.051 79.546-31.614 93.7a5.93 5.93 0 0 0 .75.915l2.027 2.028a6.052 6.052 0 0 0 .916.751c1.375.916 5.135 2.756 13.1 2.755 6.595 0 16.073-1.261 29.46-5.354 20.995-6.418 39.784-16.846 51.55-28.609l.094-.1c.58-.608 1.975-2.043 3.871-3.994 10.457-10.764 18.71-19.321 23.517-24.516l13.8 13.8a6 6 0 0 0 9.884-2.2l14.632-40.362a6 6 0 0 0 7.53-.755l17.788-17.668 17.2 58.421a6 6 0 0 0 10 2.549l31.582-31.582a49.964 49.964 0 0 0 14.082-27.583l14.074-87.816-.285-.058 112.011-111.258a132.17 132.17 0 0 0 37.394-71.873l12.993-12.992a67.853 67.853 0 0 0 15.913-25.263l17.08-48.439a6 6 0 0 0 -7.654-7.654zm-401.235 256.189 24.436-24.436a38.032 38.032 0 0 1 21-10.726l71.969-11.538-62.451 62.871zm31.1 170.7c-1.877 1.932-3.271 3.368-3.887 4.011-10.344 10.314-27.152 19.589-46.133 25.45-17.8 5.5-29.546 5.57-32.474 4.371l-.839-.838c-1.182-2.933-1.033-14.589 4.562-32.254 5.976-18.869 15.345-35.631 25.7-45.985 4.54-4.527 21.283-20.6 28.851-27.249l47.856 47.855c-6.065 6.547-18.777 19.632-23.641 24.639zm47.737-17.509-79.324-79.323 36.647-13.286 55.959 55.96zm26.01-40.891-64.448-64.449 42.279-42.564 64.735 64.736zm83.018-5.04a38.038 38.038 0 0 1 -10.726 21l-24.436 24.44-16.175-54.953 62.871-62.447zm-31.941-45.7-64.79-64.79 147.524-148.512 65.784 65.783zm161.13-160.053-4.1 4.072-65.841-65.835 4.073-4.1a120.218 120.218 0 0 1 64.2-33.789l35.455 35.454a120.211 120.211 0 0 1 -33.787 64.204zm63.438-105.6a55.755 55.755 0 0 1 -13.079 20.77l-10.114 10.115-31.386-31.392 10.11-10.111a55.768 55.768 0 0 1 20.763-13.081l36.617-12.908z"/></svg>